<?xml version="1.0" encoding="UTF-8" standalone="no"?>
<!-- Generator: Adobe Illustrator 13.0.1, SVG Export Plug-In . SVG Version: 6.00 Build 14948)  -->
<svg
   xmlns:dc="http://purl.org/dc/elements/1.1/"
   xmlns:cc="http://creativecommons.org/ns#"
   xmlns:rdf="http://www.w3.org/1999/02/22-rdf-syntax-ns#"
   xmlns:svg="http://www.w3.org/2000/svg"
   xmlns="http://www.w3.org/2000/svg"
   xmlns:xlink="http://www.w3.org/1999/xlink"
   xmlns:sodipodi="http://sodipodi.sourceforge.net/DTD/sodipodi-0.dtd"
   xmlns:inkscape="http://www.inkscape.org/namespaces/inkscape"
   version="1.1"
   id="Layer_1"
   x="0px"
   y="0px"
   width="122.75px"
   height="178.25px"
   viewBox="0 0 122.75 178.25"
   enable-background="new 0 0 122.75 178.25"
   xml:space="preserve"
   sodipodi:version="0.32"
   inkscape:version="0.46"
   sodipodi:docname="bibliologo001.svg"
   inkscape:output_extension="org.inkscape.output.svg.inkscape"><metadata
   id="metadata238"><rdf:RDF><cc:Work
       rdf:about=""><dc:format>image/svg+xml</dc:format><dc:type
         rdf:resource="http://purl.org/dc/dcmitype/StillImage" /></cc:Work></rdf:RDF></metadata><defs
   id="defs236"><inkscape:perspective
   sodipodi:type="inkscape:persp3d"
   inkscape:vp_x="0 : 89.125 : 1"
   inkscape:vp_y="0 : 1000 : 0"
   inkscape:vp_z="122.75 : 89.125 : 1"
   inkscape:persp3d-origin="61.375 : 59.416667 : 1"
   id="perspective240" />
	
	
	
	
	
	
	
	
	
	
	
	
	
	
	
	
	
	
	
	
	
	
	
	
	
	
	
	
	
	
	
	
	
	
	
	
	
	
	
	
	
	
	
	
	
	
	
	
	
	
	
	
	
	
	
	
	
	
	
	
	
	
	
	
	
	
	
	
	
	
	
	
	
	
	
	
	
	
	
	
	
	
	
	
	
	
	
	
	
	
	
	
	
	
	
	
	
	
	
	
		
	
	
		
	
	
		
	
	
	
	
	
	
	
	
	
	
	

		
		
		
		
		
		
		
		
		
		
		
		
		
		
		
		
		
		
		
		
		
		
		
		
		
		
		
		
		
		
		
		
		
		
		
		
		
		
		
		
		
		
		
		
		
		
		
		
		
		
		
		
		
		
		
		
		
		
		
		
		
	<clipPath
   id="SVGID_2_">
			<use
   height="217.59"
   width="474.83701"
   y="0"
   x="0"
   style="overflow:visible"
   id="use246"
   overflow="visible"
   xlink:href="#SVGID_1_" />
		</clipPath>
		<defs
   id="defs242">
			<rect
   y="0"
   x="0"
   height="217.59"
   width="474.83701"
   id="SVGID_1_" />
		</defs>
	
	

		<inkscape:perspective
   id="perspective375"
   inkscape:persp3d-origin="237.4185 : 72.529999 : 1"
   inkscape:vp_z="474.83701 : 108.795 : 1"
   inkscape:vp_y="0 : 1000 : 0"
   inkscape:vp_x="0 : 108.795 : 1"
   sodipodi:type="inkscape:persp3d" /></defs><sodipodi:namedview
   inkscape:window-height="963"
   inkscape:window-width="1270"
   inkscape:pageshadow="2"
   inkscape:pageopacity="0.0"
   guidetolerance="10.0"
   gridtolerance="10.0"
   objecttolerance="10.0"
   borderopacity="1.0"
   bordercolor="#666666"
   pagecolor="#ffffff"
   id="base"
   showgrid="false"
   inkscape:zoom="2.1178121"
   inkscape:cx="39.607575"
   inkscape:cy="101.35567"
   inkscape:window-x="5"
   inkscape:window-y="-3"
   inkscape:current-layer="Layer_1" />

<g
   id="g2788"
   transform="matrix(1.5884549,0,0,1.6233291,-36.116419,-100.90778)"><g
     id="g2775"><path
       style="fill:#8d5fd3"
       id="path312"
       d="M 78.193,16.192 C 77.91,16.137 71.115,14.942 63.003,14.942 C 56.571,14.942 50.768,16.877 48.217,17.86 C 45.666,16.876 39.863,14.942 33.436,14.942 C 25.323,14.942 18.523,16.137 18.241,16.192 L 17.324,16.357 L 17.324,23.38 L 17.324,53.61 L 17.324,59.568 L 18.671,59.277 C 18.726,59.264 24.351,58.056 32.629,58.056 C 38.85,58.056 45.299,59.792 47.837,60.704 L 48.217,60.844 L 48.597,60.704 C 51.135,59.791 57.584,58.056 63.813,58.056 C 72.082,58.056 77.707,59.264 77.762,59.277 L 79.11,59.568 L 79.11,53.61 L 79.11,23.38 L 79.11,16.357 L 78.193,16.192 z"
       clip-path="url(#SVGID_2_)"
       transform="translate(13.158,95.232)" /><path
       style="fill:#ffffff"
       id="path314"
       d="M 47.152,19.862 C 44.58,18.899 39.276,17.218 33.482,17.218 C 27.206,17.218 21.666,17.97 19.592,18.286 L 19.592,50.957 C 21.762,50.585 26.438,49.936 32.68,49.936 C 38.272,49.936 43.868,51.216 47.153,52.229 L 47.153,19.862 L 47.152,19.862 z"
       clip-path="url(#SVGID_2_)"
       transform="translate(13.158,95.232)" /><path
       style="fill:#ffffff"
       id="path316"
       d="M 63.053,17.218 C 57.183,17.218 51.811,18.945 49.277,19.9 L 49.277,52.267 C 52.55,51.241 58.205,49.94 63.86,49.94 C 70.102,49.94 74.773,50.583 76.944,50.954 L 76.944,18.287 C 74.865,17.966 69.329,17.218 63.053,17.218"
       clip-path="url(#SVGID_2_)"
       transform="translate(13.158,95.232)" /><path
       style="fill:#9955ff"
       id="path318"
       d="M 25.749,22.666 C 24.947,22.881 24.503,23.616 24.748,24.313 C 24.998,25.006 25.847,25.39 26.649,25.179 C 26.691,25.166 30.838,24.435 34.373,24.435 C 37.583,24.435 41.181,25.893 41.219,25.905 C 42.004,26.163 42.874,25.817 43.17,25.136 C 43.465,24.456 43.065,23.7 42.282,23.438 C 42.105,23.379 38.144,21.808 34.372,21.808 C 30.37,21.809 25.935,22.62 25.749,22.666"
       clip-path="url(#SVGID_2_)"
       transform="translate(13.158,95.232)" /><path
       style="fill:#9955ff"
       id="path320"
       d="M 25.749,29.153 C 24.947,29.372 24.503,30.107 24.748,30.804 C 24.998,31.492 25.847,31.885 26.649,31.665 C 26.691,31.657 30.838,30.926 34.373,30.926 C 37.583,30.926 41.181,32.383 41.219,32.396 C 42.004,32.649 42.874,32.303 43.17,31.623 C 43.465,30.944 43.065,30.187 42.282,29.934 C 42.105,29.874 38.144,28.295 34.372,28.295 C 30.37,28.296 25.935,29.107 25.749,29.153"
       clip-path="url(#SVGID_2_)"
       transform="translate(13.158,95.232)" /><path
       style="fill:#9955ff"
       id="path322"
       d="M 25.749,35.648 C 24.947,35.864 24.503,36.603 24.748,37.292 C 24.998,37.984 25.847,38.377 26.649,38.157 C 26.691,38.149 30.838,37.413 34.373,37.413 C 37.583,37.413 41.181,38.871 41.219,38.883 C 42.004,39.141 42.874,38.795 43.17,38.114 C 43.465,37.43 43.065,36.678 42.282,36.425 C 42.105,36.37 38.144,34.786 34.372,34.786 C 30.37,34.787 25.935,35.594 25.749,35.648"
       clip-path="url(#SVGID_2_)"
       transform="translate(13.158,95.232)" /><path
       style="fill:#9955ff"
       id="path324"
       d="M 25.749,42.136 C 24.947,42.355 24.503,43.094 24.748,43.783 C 24.998,44.475 25.847,44.865 26.649,44.649 C 26.691,44.641 30.838,43.901 34.373,43.901 C 37.583,43.901 41.181,45.366 41.219,45.375 C 42.004,45.633 42.874,45.291 43.17,44.606 C 43.465,43.926 43.065,43.166 42.282,42.917 C 42.105,42.857 38.144,41.273 34.372,41.273 C 30.37,41.273 25.935,42.089 25.749,42.136"
       clip-path="url(#SVGID_2_)"
       transform="translate(13.158,95.232)" /><path
       style="fill:#9955ff"
       id="path326"
       d="M 70.909,22.666 C 71.712,22.881 72.155,23.616 71.91,24.313 C 71.66,25.006 70.812,25.39 70.01,25.179 C 69.971,25.166 65.82,24.435 62.285,24.435 C 59.079,24.435 55.481,25.893 55.443,25.905 C 54.658,26.163 53.784,25.817 53.492,25.136 C 53.197,24.456 53.593,23.7 54.379,23.438 C 54.547,23.379 58.518,21.808 62.285,21.808 C 66.292,21.809 70.722,22.62 70.909,22.666"
       clip-path="url(#SVGID_2_)"
       transform="translate(13.158,95.232)" /><path
       style="fill:#9955ff"
       id="path328"
       d="M 70.909,29.153 C 71.712,29.372 72.155,30.107 71.91,30.804 C 71.66,31.492 70.812,31.885 70.01,31.665 C 69.971,31.657 65.82,30.926 62.285,30.926 C 59.079,30.926 55.481,32.383 55.443,32.396 C 54.658,32.649 53.784,32.303 53.492,31.623 C 53.197,30.944 53.593,30.187 54.379,29.934 C 54.547,29.874 58.518,28.295 62.285,28.295 C 66.292,28.296 70.722,29.107 70.909,29.153"
       clip-path="url(#SVGID_2_)"
       transform="translate(13.158,95.232)" /><path
       style="fill:#9955ff"
       id="path330"
       d="M 70.909,35.648 C 71.712,35.864 72.155,36.603 71.91,37.292 C 71.66,37.984 70.812,38.377 70.01,38.157 C 69.971,38.149 65.82,37.413 62.285,37.413 C 59.079,37.413 55.481,38.871 55.443,38.883 C 54.658,39.141 53.784,38.795 53.492,38.114 C 53.197,37.43 53.593,36.678 54.379,36.425 C 54.547,36.37 58.518,34.786 62.285,34.786 C 66.292,34.787 70.722,35.594 70.909,35.648"
       clip-path="url(#SVGID_2_)"
       transform="translate(13.158,95.232)" /><path
       style="fill:#9955ff"
       id="path332"
       d="M 70.909,42.136 C 71.712,42.355 72.155,43.094 71.91,43.783 C 71.66,44.475 70.812,44.865 70.01,44.649 C 69.971,44.641 65.82,43.901 62.285,43.901 C 59.079,43.901 55.481,45.366 55.443,45.375 C 54.658,45.633 53.784,45.291 53.492,44.606 C 53.197,43.926 53.593,43.166 54.379,42.917 C 54.547,42.857 58.518,41.273 62.285,41.273 C 66.292,41.273 70.722,42.089 70.909,42.136"
       clip-path="url(#SVGID_2_)"
       transform="translate(13.158,95.232)" /></g><g
     transform="matrix(0.9528898,0,0,1,0.6552972,3.416556)"
     id="g2769"><path
       style="fill:#9955ff"
       id="path17"
       d="M 41.565553,79.725791 C 40.65949,81.291784 38.849868,81.879844 38.849868,81.879844 L 37.340598,81.879844 C 37.340598,81.879844 34.627416,79.529229 35.530975,77.963236 C 36.73739,76.397242 39.152723,76.397242 39.75593,74.634688 C 43.375175,76.787116 41.868408,78.746233 41.565553,79.725791 L 41.565553,79.725791 z" /><path
       style="fill:#9955ff"
       id="path19"
       d="M 90.743229,77.963236 C 93.759267,83.054339 86.518274,88.53694 78.97693,91.082492 C 78.07337,91.47399 75.057333,93.628043 71.433082,94.216103 C 70.529522,94.607602 68.116693,94.607602 68.116693,95.978658 C 68.116693,95.978658 66.001712,96.370156 65.70136,97.153153 C 65.098152,98.327648 65.098152,99.110645 65.70136,100.28676 C 67.21063,101.26632 71.433082,102.44082 71.433082,102.44082 L 71.433082,103.61531 L 53.632205,103.61531 L 53.632205,102.44082 C 53.632205,102.44082 57.85716,101.26632 59.36643,100.28676 C 59.669285,99.110645 59.969638,98.327648 59.36643,97.153153 C 59.063575,96.370156 58.160015,96.173595 56.9536,95.978658 C 56.9536,94.607602 53.634708,93.628043 52.125438,93.433106 C 43.980886,90.887555 42.16876,87.167508 36.134183,83.642399 L 31.30602,83.642399 L 31.30602,82.467904 L 44.281238,82.467904 C 43.978383,83.83896 44.58159,85.796452 46.694068,86.384512 C 54.235412,88.147066 63.286027,89.126625 74.148767,87.167508 C 80.784049,85.991389 85.311859,86.18795 88.3304,81.684907 C 88.928601,81.096847 88.630752,78.942794 87.727192,77.963236 C 86.823632,76.788741 84.4083,76.005744 81.692615,76.593804 C 79.580137,77.180239 78.676577,78.551296 78.676577,79.922352 C 78.676577,81.096847 80.791558,81.293409 80.791558,81.293409 C 80.791558,81.293409 80.185848,79.727415 82.60118,79.530854 C 84.112953,79.530854 84.713658,79.922352 84.413306,80.90191 C 84.112953,82.272967 82.904036,83.055963 80.491206,83.055963 C 78.681583,83.055963 77.475168,82.469528 76.571609,81.48997 C 75.668049,79.72904 75.970904,77.378425 78.083382,76.20393 C 80.195859,74.832873 83.817607,74.244814 86.833644,75.029435 C 88.630752,75.612621 90.140022,77.180239 90.743229,77.963236 L 90.743229,77.963236 z" /><path
       style="fill:#ffffff"
       id="path21"
       d="M 39.75593,77.375176 C 40.661993,78.746233 38.549516,80.508787 38.549516,80.508787 C 38.549516,80.508787 37.643453,79.725791 37.946308,78.746233 C 38.24666,77.766674 38.849868,77.180239 39.75593,77.375176 L 39.75593,77.375176 z" /><path
       style="fill:#9955ff"
       id="path117"
       d="M 72.339145,85.404953 C 67.813837,85.208392 66.912781,82.074781 64.497448,80.117289 C 64.497448,79.920728 63.89424,79.920728 63.89424,79.725791 C 63.89424,79.725791 63.591385,79.725791 63.591385,79.529229 C 64.7978,79.334292 65.401008,78.746233 65.401008,77.963236 C 65.401008,76.983678 64.194593,76.005744 62.382467,76.005744 C 60.873197,76.005744 59.669285,76.985302 59.669285,77.963236 C 59.669285,78.746233 60.272493,79.334292 61.478908,79.725791 C 61.478908,80.117289 60.572845,79.920728 60.272493,80.508787 C 59.066078,83.2509 55.446833,85.794827 50.921526,86.382887 C 56.050041,86.969322 62.38497,88.340379 73.548063,86.382887 L 72.339145,85.404953 L 72.339145,85.404953 z" /></g></g></svg>