<svg xmlns="http://www.w3.org/2000/svg" viewBox="0 0 640 480">
<g stroke="#000" stroke-width=".481" transform="matrix(1.30357 0 0 1.30357 -74.05069 -553.63156)">
<path d="m173.6939,534.8193c9.587-7.7812 20.1857-14.1357 30.6254-20.6748 2.6601-1.6822 5.3289-3.3507 7.9803-5.0465 9.5625-6.116 9.776-6.6419 21.0498-12.6179 10.5424-5.5883 21.6418-9.6424 32.8434-13.6558 22.1438-7.1544 44.1993-14.6061 65.8611-23.1197 6.3747-2.7653 12.8951-5.2423 18.9278-8.7194 .4436-.2557-1.7104,1.0994-1.3469,.7387 .5041-.5001 1.1872-.7795 1.7808-1.1692l1.5066-.9676 3.9418-1.5334-1.5192,.9649c-8.24,5.5059-17.265,9.4926-26.4418,13.1599-21.6526,8.4464-43.6803,15.8722-65.7837,23.0449-11.2574,4.0564-22.1763,8.2887-32.8463,13.7425-6.1993,3.1686-7.8081,4.5582-14.2536,8.6868-2.6455,1.6945-5.3088,3.3611-7.9631,5.0417-10.3715,6.505-20.9062,12.8127-30.4447,20.5326l-3.9177,1.5923z"/>
<path d="m176.8129,535.4148c-3.2688,3.4717-7.0137,6.4683-10.8057,9.3458-3.3757,2.529-6.8805,4.8678-10.4788,7.0692-4.1628,2.5772-8.1793,5.4297-12.6462,7.4751-3.3937,1.8967 .977-.5543 1.5154-.7929 .1273-.0564-.6145,.454-.3876,.6652 .2455,.2285 .665,.1012 .9251,.0721 3.0843-.6433 6.2444-.6969 9.3811-.7942 8.3546-.1649 16.7113-.1606 25.0672-.1705 8.1501,.1317 16.3164-.2657 24.4584,.168 5.205,.1437 10.2924,1.238 15.4277,1.9658 4.1353,.5202 8.3037,.6323 12.4661,.6954 4.1843,.0394 8.3689,.0262 12.5533,.0181 3.333-.008 6.6661-.0124 9.9991-.0147l9.788-.0003 12.0608,.008 13.1999-.003 11.7611-.004c3.1017,.2089 6.1122-.1543 9.157-.6781 3.1088-.5183 6.2673-.6234 9.4121-.7091 3.1671-.0656 6.3351-.0543 9.5026-.049 3.9262,.008 7.8523,.007 11.7785,.007l10.1407,.0003c1.8028,.0701 3.5443,.0592 5.2798-.4573l-3.378,2.5904c-1.7595,.4092-3.5271,.4106-5.3281,.3563l-10.138-.002-11.7754-.009c-3.1674,.002-6.3353-.007-9.5021,.0639-3.1361,.0938-6.2838,.2174-9.3805,.7598-3.0539,.5177-6.0892,.7893-9.1933,.6158-3.9164-.002-7.8328-.006-11.7491-.004l-13.1929-.003-12.0829,.008-9.7895,.002-9.9854,.005c-4.1868,.004-8.3738,.0197-12.5604-.0223-4.1714-.0747-8.3484-.2011-12.4902-.7436-5.115-.7459-10.1891-1.8118-15.3764-1.9553-8.128-.4069-16.277-.0583-24.4121-.1743-8.369,.0135-16.7395,.009-25.1064,.2163-3.1678,.1218-6.3247,.295-9.4553,.8073-4.5375-.7726 2.9996-4.1067 4.7239-5.0751 .4779-.2305 1.8497-1.0207 1.4336-.6916-.6541,.5174-1.4048,.9085-2.1587,1.2651-.5281,.2499 .982-.6332 1.4775-.9429 5.7388-3.5863-2.8617,1.8592 3.0495-1.9607 .5232-.3381 1.0589-.6564 1.5883-.9846 3.6191-2.1702 7.1155-4.5248 10.5058-7.0331 3.7855-2.855 7.5229-5.8215 10.8145-9.245l3.906-1.6596z"/>
<path d="m354.7889,561.9916c3.9653-4.6378 8.121-9.0939 12.5654-13.2739 3.0636-2.4473 5.9527-5.0856 8.5353-8.0362 2.0038-2.452 4.0979-4.8185 6.0247-7.3322 2.3297-2.5834 4.1396-5.3813 5.4914-8.5729 1.2856-3.4131 3.2376-6.5084 4.6619-9.8514 1.4299-3.2032 2.3704-6.5873 3.6773-9.8387 1.04-2.6512 2.4269-5.185 3.9862-7.5667 1.5469-2.5444 3.4054-4.8687 5.5321-6.9474 2.0923-1.9982 4.1981-3.9671 6.0129-6.2284 1.5957-1.8739 3.5079-3.4655 5.3939-5.0409 1.955-1.3482 3.158-3.4151 4.6184-5.2299 .5895-.974 1.5846-1.644 2.0258-2.7016l3.8591-1.8268c-.2578,1.2132-1.3567,1.8243-1.9727,2.8653-1.5228,1.7774-2.6263,3.9422-4.5863,5.3062-1.9175,1.5214-3.7765,3.167-5.4408,4.9584-1.7749,2.3106-3.8916,4.284-5.9949,6.2862-2.1599,2.0181-4.0219,4.3299-5.5578,6.8593-1.6119,2.3214-2.957,4.8827-4.0317,7.4915-1.3426,3.2407-2.2532,6.6366-3.6814,9.8438-1.369,3.3676-3.3814,6.4323-4.6586,9.8504-1.3294,3.2296-3.0592,6.0913-5.446,8.6717-1.921,2.5216-4.0013,4.8978-6.0075,7.3516-2.5463,3.0077-5.4666,5.6607-8.5626,8.0966-4.4479,4.149-8.6135,8.5687-12.5426,13.2145l-3.9014,1.6512z"/>
<path d="m356.0811,453.5953c6.3602-1.7999 12.9161-2.6953 19.4803-3.3259 5.5762-.5832 11.1676,.1219 16.7371,.4499 5.1507,.0557 10.249,.7684 15.3666,1.2694 3.6149,.356 7.2448,.4883 10.8748,.5465 2.793-.004 5.5419-.105 8.2858,.4559 1.5807,.3197 .7854,.1707 2.386,.4465l-3.479,2.4365c-1.6066-.2866-.8094-.1352-2.3917-.4536-2.7254-.5185-5.4691-.3657-8.2337-.4006-3.6304-.0693-7.2598-.2206-10.8738-.5895-5.11-.5136-10.2046-1.1937-15.3483-1.2617-5.5509-.3277-11.1239-1.0189-16.6806-.4101-6.5739,.6485-13.1292,1.5827-19.4956,3.4013l3.3721-2.5645z"/>
<path d="m147.6022,570.0811c-.3166,6.7924 1.2439,13.4318 2.4989,20.0548 .5174,2.6562 .8983,5.3342 1.251,8.016l-3.7281,1.9601c-.3371-2.6797-.7022-5.3557-1.2109-8.0095-1.2447-6.6415-2.8114-13.291-2.5865-20.0975l3.7757-1.9238z"/>
<path d="m149.0307,608.6525c-.1906,6.7252 .4285,13.4319 .8256,20.139 .3453,5.9751 .4868,11.9591 .572,17.9428 .0265,2.6748 .0161,1.3713 .0321,3.9102l-3.7661,1.9211c-.007-2.5412-.002-1.2366-.0177-3.9139-.0608-5.9841-.1862-11.9687-.5262-17.9444-.3904-6.706-1.0102-13.4074-.8954-20.1308l3.7757-1.9238z"/>
<path d="m147.9394,665.0011c.2986,4.7673 1.2351,9.4488 1.9537,14.1615 .3272,2.5199 .1852,1.2533 .4253,3.7998l-1.249,.6512c-.2374-2.5413-.0971-1.2769-.4201-3.7934-.7128-4.7147-1.647-9.3972-1.9612-14.1639l1.2513-.6551z"/>
<path d="m146.1774,709.1304c-.571,4.863-.8979,9.7487-1.104,14.6392-.1516,4.0815-.1626,8.1663-.1697,12.2501 .2359,3.7579-.3688,7.4555-.8487,11.1655-.4219,3.2401-.4936,6.5094-.5495,9.7719-.005,.5341-.0109,1.0683-.0163,1.6024l-1.2586,.6397c.005-.5345 .0109-1.069 .0163-1.6035 .0555-3.267 .1222-6.5413 .5426-9.7861 .4795-3.7054 1.1001-7.3971 .8595-11.1509 .008-4.086 .0177-8.1732 .1707-12.2569 .2069-4.8922 .5384-9.7784 1.09-14.6451l1.268-.6263z"/>
<path d="m360.7965,576.4297c.1498,6.1533-.008,12.3104-.0765,18.4643-.1459,5.6183 .5173,11.2161 .9423,16.8107 .048,1.8605-.1563,3.7102-.3429,5.5572l-1.2635,.6277c.1894-1.8404 .3975-3.6833 .3594-5.5376-.4182-5.6001-1.0818-11.203-.9389-16.8261 .0695-6.1461 .2285-12.2958 .0689-18.4411l1.2513-.6551z"/>
<path d="m357.9397,640.5433c.6114,4.8168 .909,9.6629 1.0942,14.5122 .1657,5.5506 .1644,11.1044 .1694,16.6569 .002,5.2744-.002,10.5488-.002,15.8231-.0002,3.3349 .0001,6.6698 .0002,10.0047 .1828,3.3656-.469,6.6766-.8587,10.0044-.4035,3.4888-.495,7.0004-.5518,10.5085-.0369,3.1378-.0294,6.276-.0259,9.414-.216,1.6989-.0824,.8653-.3963,2.5015l-1.2736,.6184c.3193-1.6237 .1812-.7978 .4107-2.4782-.003-3.1392-.01-6.2785 .0274-9.4175 .0564-3.5123 .1432-7.0283 .5463-10.5215 .3864-3.3229 1.0441-6.6278 .8625-9.988 .0008-3.336 .002-6.6721 .006-10.0081 .006-5.2756 .012-10.5512 .0102-15.8268-.008-5.5503-.005-11.1019-.171-16.6503-.1843-4.8439-.4741-9.6858-1.0997-14.4956l1.252-.6577z"/>
<path d="m152.1138,577.8386c13.4946,1.4322 27.0632,1.9605 40.6147,2.5656 22.7302,.4562 45.5355,2.0325 68.2653,.6522 3.66-.2223 7.3048-.6485 10.9571-.9727 11.4756-1.1221 22.8061-3.1725 34.113-5.3591 3.655-.3844 1.8855-.2584 5.307-.4015l-1.1314,.8294c-3.4097,.1498-1.6465,.02-5.2879,.4131-11.2877,2.173-22.6018,4.1921-34.0569,5.2997-3.6496,.3194-7.2918,.7401-10.9489,.9582-22.7351,1.3555-45.5436-.22-68.2791-.655-13.581-.5926-27.1783-1.1075-40.7047-2.5124l1.1518-.8175z"/>
<path d="m163.708,590.519c21.9214,.0362 43.8428,.0398 65.7642,.0466 34.7972,.0964 69.5838-1.1445 104.365-2.083l9.8496-.2795-1.0706,.7823-9.8206,.2582c-34.7729,.891-69.5488,2.1379-104.3363,2.058-21.9642,.007-43.9284,.0105-65.8926,.0466l1.1413-.8292z"/>
<path d="m172.4533,610.6956c20.7127,1.0599 41.4707,1.003 62.2054,1.1361 23.8525,.1218 47.7054,.1428 71.5582,.1596l-1.0142,.7367c-23.8544-.0298-47.7089-.0549-71.5632-.1567-20.7772-.1178-41.5762-.0481-62.3335-1.0579l1.1473-.8178z"/>
<path d="m158.3341,624.8058c22.3558,.0328 44.7116,.0385 67.0674,.0479 41.4088-.3339 82.8003,.212 124.1934,1.2962l-1.0055,.7265c-41.393-1.1207-82.7848-1.6577-124.1943-1.2915-22.3998,.01-44.7996,.0151-67.1994,.0479l1.1385-.8271z"/>
<path d="m164.3887,653.3782c24.9378,.0407 49.8756,.0422 74.8134,.0457 26.1197,.002 52.2395-.0007 78.3592-.0141l-1.0485,.7618c-26.1068-.0134-52.2136-.0162-78.3204-.0141-24.9798,.004-49.9596,.005-74.9393,.0457l1.1356-.825z"/>
<path d="m147.9265,673.3803c28.718-.1824 57.4221,.1919 86.1313,.8673 34.7142,1.4182 69.4103,3.1879 104.1406,4.1794 11.3945,.3075 22.7922,.4541 34.1897,.5897l-1.0729,.7774c-11.3864-.1467-22.7729-.3028-34.1562-.6165-34.7126-1.0124-69.3901-2.8106-104.0877-4.2168-28.757-.6624-57.5093-1.0274-86.2746-.7597l1.1298-.8208z"/>
<path d="m151.8719,683.3793c26.9192,.3583 53.8242-.5136 80.7294-1.2497 25.3345-.729 50.675-1.1988 76.0179-1.4969l-1.0858,.7907c-25.3162,.261-50.6299,.7221-75.9376,1.4409-26.9481,.7353-53.8945,1.6081-80.8567,1.338l1.1327-.8229z"/>
<path d="m144.971,696.41c20.0203,1.1244 40.0989,1.0082 60.1451,1.1363 36.594,.9653 73.1852,1.9557 109.7883,2.5142 27.0276,.3743 54.0578,.4718 81.0876,.4977l7.0583-.002-1.0964,.7964c-2.3456-.005-4.6913-.009-7.0369-.0139-27.0073-.0626-54.015-.1586-81.0199-.5489-36.6064-.5662-73.2009-1.5663-109.799-2.5049-20.0906-.1125-40.2121,.0202-60.2788-1.0576l1.1518-.8175z"/>
<path d="m169.9328,719.092c25.8439-.187 51.6727,.2042 77.5071,.8651 26.3182,.7112 52.6402,1.2581 78.9642,1.699l-1.0626,.7692c-26.3028-.4814-52.6039-1.0466-78.9018-1.7453-25.88-.6475-51.7549-1.0326-77.6438-.7619l1.137-.8261z"/>
<path d="m161.7017,731.9502c27.3283,.0452 54.6566,.0471 81.985,.0499 16.9781-.0462 33.9537-.0237 50.9307,.1604l-1.028,.7451c-16.9665-.1964-33.9316-.2296-50.8995-.1813-27.3741,.003-54.7482,.005-82.1223,.0499l1.1341-.824z"/>
<path d="m135.9874,746.2359c20.0723,.0308 40.1446,.0284 60.2169,.0326 28.9522-.4161 57.8793,.898 86.8118,1.7277 23.6495,1.1214 47.2943,.415 70.9262-.6467 7.4597-.3577 14.9185-.7407 22.3824-1.0024l-1.1303,.8272c-7.4475,.2518-14.8901,.6222-22.3336,.9684-23.6164,1.0313-47.2446,1.7218-70.8769,.5989-28.9364-.8302-57.8678-2.1383-86.8239-1.7144-20.1022,.004-40.2045,.002-60.3067,.0326l1.1341-.824z"/>
<path d="m203.1381,761.0457c28.7292,2.8245 57.679,2.8892 86.5236,3.3315 32.2668,.4069 64.5364,.4776 96.8054,.4856 11.4175-.006 6.0517-.001 16.0973-.0141l-1.0966,.7968-16.0608-.0126c-32.2469-.0524-64.4946-.1298-96.7393-.5357-28.8962-.4388-57.8926-.5-86.6793-3.2503l1.1497-.8011z"/>
<path d="m433.3202,467.7018c-.3659,4.3917-.9956,8.7306-1.7453,13.0701-.4866,2.6923-.716,5.4168-.8574,8.1457l-1.2622,.635c.1395-2.7346 .3665-5.4652 .8544-8.1631 .7517-4.3363 1.3981-8.6699 1.7425-13.0614l1.268-.6263z"/>
<path d="m370.2061,572.8757c3.6267-5.9976 7.7678-11.6567 11.7027-17.451 4.0778-6.0144 7.707-12.3053 10.9115-18.8225 2.0608-3.9779 3.791-8.1015 5.7699-12.1189 1.0336-1.9607 1.9881-3.9359 3.2536-5.7587l1.2954-.5631c-1.2818,1.8099-2.2279,3.7829-3.2649,5.7399-1.9794,4.0209-3.724,8.1412-5.7821,12.1242-3.2048,6.5248-6.8346,12.8233-10.9141,18.8449-3.9282,5.7898-8.0748,11.4378-11.6754,17.4428l-1.2966,.5623z"/>
<path d="m413.5152,512.4935c7.8948-4.7546 14.9652-10.6857 21.5729-17.0724l3.0503-3.3222 1.274-.5342-3.0534,3.3324c-7.2595,7.0317-15.0982,13.5168-23.9413,18.4821l1.0974-.8857z"/>
<path d="m374.6581,591.6073c8.5676-8.2863 16.4308-17.2474 24.1165-26.3448 10.3492-13.0239 18.0183-27.9398 24.6971-43.1087l2.2385-5.0907 1.2459-.571-2.25,5.096c-6.6892,15.1774-14.3609,30.1055-24.6995,43.1519-7.6649,9.0871-15.5065,18.0388-24.0427,26.3264l-1.3059,.5409z"/>
<path d="m381.9882,617.2319c10.8692-19.607 22.9898-38.4828 34.9228-57.4502 9.5451-14.7851 18.2559-30.0777 27.2104-45.2194l1.2433-.5518c-8.997,15.143-17.7296,30.4492-27.2834,45.2555-11.9109,18.9384-24.0117,37.7857-34.8199,57.3858l-1.2731,.5802z"/>
<path d="m361.4663,637.1682c6.1209-10.484 12.6855-20.7147 20.1295-30.3186 2.6757-3.4521 5.4891-6.7954 8.2337-10.193 14.477-17.0717 29.2709-33.9817 41.2491-52.9652 2.0292-3.2159 3.8567-6.5546 5.785-9.8319l4.9006-8.8211 1.208-.5402-4.9118,8.8296c-1.93,3.2809-3.7591,6.6234-5.7901,9.8427-11.9794,18.9878-26.7748,35.9021-41.2523,52.979-2.7396,3.3935-5.5481,6.7326-8.2189,10.1806-7.4215,9.5811-13.9671,19.7876-20.041,30.2624l-1.2917,.5758z"/>
<path d="m374.1641,657.7583c1.0673-4.0644 1.4568-5.7878 2.9435-10.1108 .9146-2.6594 1.9883-5.2619 2.9273-7.9129 3.8087-10.7535 7.5146-21.5496 11.2715-32.322 3.2841-10.1577 6.9596-20.1762 10.7486-30.1534l1.209-.5616c-3.807,9.978-7.4993,19.9981-10.7811,30.1644-3.7486,10.7659-7.4416,21.5563-11.2327,32.3065-.933,2.6458-2.0024,5.2428-2.9108,7.8971-1.4893,4.3519-1.8512,6.0031-2.9069,10.085l-1.2685,.6077z"/>
<path d="m370.2127,678.0865c6.8923-13.2655 15.2891-25.6975 23.8813-37.9057 8.2555-11.3634 17.0362-22.344 25.0951-33.8514 3.324-4.7463 6.8687-10.2192 10.0646-15.0888 5.6339-9.046 12.0542-17.5539 19.8878-24.7969 2.1504-1.835 4.3347-3.6152 6.4353-5.507l1.2977-.5298c-2.0991,1.8991-4.2858,3.6804-6.4461,5.5098-7.8621,7.2273-14.2986,15.7376-19.9472,24.7857-3.124,4.7535-6.8449,10.4838-10.0792,15.1017-8.0586,11.5061-16.8379,22.4863-25.0929,33.8485-8.5764,12.1856-16.9637,24.5956-23.813,37.8531l-1.2834,.5807z"/>
<path d="m378.7776,685.7329c.6802-.8377 1.3882-1.6535 2.0405-2.5132 4.2617-5.6164 8.2616-11.3945 12.6711-16.9055 5.4873-6.8581 7.4686-9.0176 13.3151-15.7863 13.5368-15.4676 27.2031-30.9136 38.1914-48.3581 1.9803-3.1439 3.7561-6.4121 5.6341-9.6181 5.8437-11.4344 3.1993-5.8522 8.006-16.7122l1.2177-.5578c-4.8209,10.8766-2.1701,5.2861-8.0246,16.737-1.8803,3.21-3.6586,6.4819-5.6409,9.6299-10.9845,17.4443-24.639,32.8973-38.1713,48.3666-5.8297,6.7505-7.8286,8.9303-13.2983,15.7716-4.3986,5.5015-8.3769,11.2721-12.6173,16.8858-.6463,.8557-1.3514,1.6653-2.0271,2.498l-1.2966,.5623z"/>
<path d="m392.5613,701.3006c2.258-8.327 4.7662-16.5458 7.8985-24.5898 3.7701-8.964 8.1972-17.6292 13.0044-26.0762 2.4181-3.9413 1.2613-2.0406 3.4735-5.7002l1.2769-.5654c-2.2178,3.6626-1.0574,1.7616-3.4844,5.7011-4.8182,8.44-9.2481,17.1037-13.0257,26.0637-3.1303,8.0309-5.6395,16.2344-7.868,24.556l-1.2751,.6108z"/>
<path d="m371.798,736.0582c6.8941-5.5006 11.7117-12.8569 16.5725-20.0882 7.315-11.4012 15.7134-22.0392 23.3513-33.2158 8.0646-10.9218 13.4253-23.3873 18.2881-35.9706l1.3279-3.8269 1.2556-.5877-1.3344,3.8352c-4.878,12.5912-10.2357,25.0761-18.3029,36.0117-7.6277,11.1747-16.0178,21.8096-23.3285,33.2047-4.854,7.2266-9.6469,14.5915-16.5177,20.1082l-1.3118,.5295z"/>
<path d="m386.2587,758.5788c8.318-9.2946 16.0801-19.0531 23.7055-28.9172 10.1238-14.8396 21.4447-28.8376 31.3976-43.7961 2.1602-3.2466 4.1696-6.591 6.2544-9.8865 8.2212-13.5388 15.6809-27.5394 22.2232-41.9642 1.1832-3.4791 3.9704-7.5056 2.5751-11.295l1.2384-.6872c1.4235,3.8409-1.33,7.8808-2.5601,11.4095-6.5671,14.4381-14.0519,28.4505-22.2809,42.0104-2.0847,3.2976-4.0941,6.6441-6.2541,9.8929-9.9428,14.9548-21.2579,28.9459-31.3628,43.7881-7.6081,9.8547-15.3594,19.5964-23.6328,28.9056l-1.3035,.5399z"/>
<path d="m254.575,562.2969c-.0777,8.0525-.0626,16.1055-.0831,24.1582-.0343,10.1268-.001,20.2536 .0244,30.3803 .0202,6.6912 .0228,13.3824 .0175,20.0736-.002,7.0692-.009,14.1383-.007,21.2074-.005,6.2259 .0176,12.4517 .0213,18.6776-.0116,5.7225-.004,11.4451-.0002,17.1677 .007,4.0282 .0186,8.0565 .0249,12.0847-.005,3.3193-.0006,6.6386 .002,9.9579 .002,2.9312 .003,5.8623 .003,8.7935-.0001,3.1423-.006,6.2846-.005,9.4268 .1156,2.8034-.6542,5.5263-1.0122,8.2879-.3271,3.0787-.3741,6.1773-.4091,9.2703-.0207,2.9071-.0123,5.8144-.009,8.7216 .002,1.7914-.002,.9536 .0109,2.5133l-6.3135,3.2178c.01-1.5679 .007-.7274 .005-2.5215-.003-2.9103-.0108-5.8207 .008-8.7309 .0325-3.1151 .0792-6.2343 .3725-9.338 .3056-2.7506 1.1163-5.4389 1.0583-8.2165 .001-3.1407-.005-6.2813-.005-9.422 .0003-2.9321 .0008-5.8643 .003-8.7964 .002-3.3198 .007-6.6397 .002-9.9596 .006-4.0367 .0181-8.0734 .0249-12.1101 .004-5.7225 .0114-11.445-.0002-17.1675 .004-6.2331 .0261-12.4662 .0213-18.6994 .003-7.0668-.005-14.1336-.007-21.2005-.005-6.6971-.003-13.3943 .0174-20.0914 .0254-10.135 .0587-20.2702 .0244-30.4052-.0205-8.0245-.005-16.0493-.0832-24.0735l6.2929-3.2064z"/>
<path d="m246.8402,555.3299c6.2904-4.8967 11.5864-10.8689 17.517-16.1579 7.3281-5.7345 15.5952-10.2625 24.0346-14.1544 .9475-.4813 3.5782-2.2111 2.8427-1.444-.8424,.8787-1.9819,1.5796-3.1798,1.7956-1.0215,.1842 1.7548-1.1097 2.6132-1.6934 2.2321-1.5179 4.2954-3.1649 6.2926-4.9744 2.5347-2.2394 4.1919-5.2594 6.6132-7.5916 4.0771-2.9809 8.7094-4.9567 13.469-6.4842 3.4203-1.1547 7.0268-1.6411 10.4689-2.6814 4-1.9296-3.3164,2.9316-5.2564,2.6988l5.8362-4.0494c4.9192,1.5031-3.2293,4.991-6.175,5.6559-3.478,.9145-7.0282,1.56-10.4475,2.7077-1.3706,.4786-2.7365,.9743-4.0967,1.4813-.3993,.1488-1.5424,.7073-1.1891,.4691 2.7086-1.8261 7.221-4.2312 3.9453-2.4684-2.6226,2.153-4.132,5.3446-6.6744,7.6026-5.9682,5.6217-13.2158,9.6857-20.5199,13.3164-.9787,.4596-1.9665,.9004-2.9362,1.3787-1.0512,.5185-2.1042,2.1864-3.1255,1.6112-.9773-.5504 3.9544-2.0458 2.8713-1.7544-1.1073,.2979-1.969,1.1758-2.9468,1.7747-3.8111,2.3344-2.3466,1.3663-6.0198,4.1915-5.9695,5.2044-11.1927,11.2036-17.3986,16.1565l-6.5383,2.6135z"/>
<path d="m318.6106,501.1129c6.7372-2.5788 13.2219-5.7014 19.5386-9.1707 3.1321-1.7927 6.32-3.4867 9.4644-5.2572 .9474-.5334 3.769-2.1697 2.8251-1.6302-3.5313,2.0183-4.7743,2.7964-.7628,.3657 4.1892-2.0113 7.5542-5.1788 11.2198-7.9467 3.1442-2.3675 6.37-4.6424 9.3363-7.2332 2.0448-1.8654 3.1828-4.4128 4.7067-6.6579 .3331-.5033 .8853-.9904 .879-1.6362l6.2772-3.3566c.2656,.9527 .001,1.4208-.6564,2.1911-1.7383,2.1008-2.6076,4.9018-4.674,6.7988-2.9332,2.6508-6.1805,4.918-9.3335,7.2984-3.7227,2.7236-6.9992,6.0425-11.2348,8.0219-7.6803,4.7037-15.5861,9.0203-23.4533,13.3992-6.3707,3.4631-12.9202,6.5716-19.7062,9.144l5.5739-4.3304z"/>
<path d="m240.4437,494.5774c14.036-.5624 27.9,1.0475 41.7573,3.0805 17.0747,3.0623 34.0603,6.589 51.1068,9.801 7.159,1.366 14.3763,2.439 21.6574,2.8257 3.1358,.1267 6.2747,.0644 9.4118,.0445 3.7278-.025 7.4556-.027 11.1834-.0339 3.2852-.006 6.5704-.009 9.8557-.01 2.2911-.003 4.5822,.005 6.8732-.006l-5.733,4.1652c-2.2853-.0113-4.5707-.003-6.856-.007l-9.8367-.003c-3.7321,.004-7.4642,.0146-11.1961,.0487-3.1388,.0292-6.2804,.0713-9.4163-.0998-7.2347-.4785-14.3995-1.6278-21.5073-3.0421-16.9858-3.3222-33.9352-6.8324-50.9783-9.8541-6.8748-.9919-11.6608-1.7868-18.572-2.3734-7.8115-.6631-15.6229-.447-23.4493-.3965l5.6994-4.1409z"/>
<path d="m407.5849,516.548c.6793,7.3293 .8775,14.692 1.0491,22.0472 .2463,7.4745 .0003,14.9592 .3515,22.4289 .4798,6.8233 .8983,13.6483 1.1012,20.4858 .1636,7.6413 .149,15.285 .1518,22.9276 .0104,6.46 .0296,12.9201 .0212,19.3801-.2012,6.2227 .15,12.4139 .6271,18.6137 .1925,4.9729 .6983,9.891 1.3962,14.8125 .5325,4.149 .7028,8.333 .8145,12.5111-.0126,3.9202 .0362,7.8132 .4328,11.7141 .4567,3.8541 .7744,7.7205 .9443,11.5973 .1175,3.2517 .1044,6.5062 .1078,9.7595 .0008,3.0305-.002,6.061-.003,9.0915-.001,2.8636-.001,5.7273-.002,8.5909-.1323,2.0077 .227,4.0699-.11,6.0583l-6.4199,3.0547c.7499-1.7855-.0568-4.0181 .2318-5.904 .0002-2.864 .0003-5.728 .003-8.5919 .003-3.0318 .008-6.0635 .0125-9.0953 .001-3.2448 .004-6.4904-.0946-9.734-.1483-3.8679-.4349-7.7278-.896-11.572-.4236-3.9151-.5225-7.816-.4777-11.7546-.0894-4.1553-.2348-8.3174-.7673-12.4436-.6937-4.9448-1.1914-9.8822-1.3663-14.8784-.4751-6.2141-.8701-12.419-.6607-18.6569-.003-6.4691 .0281-12.9382 .0342-19.4073-.01-7.63-.008-15.2611-.1825-22.8895-.202-6.8355-.5779-13.6617-1.0799-20.4819-.3733-7.4794-.1093-14.9738-.3307-22.4592-.1695-7.3168-.3452-14.6481-1.1449-21.9287l6.2566-3.2756z"/>
<path d="m302.6578,513.1347c-3.1242-3.2436-5.8273-6.7587-7.6284-10.8959-1.0206-2.772-1.6067-5.6585-.6223-8.5044 1.0403-2.1476 1.5798-4.4738 2.2704-6.7461 .6163-1.5462 1.3479-2.8469 3.2395-3.0798 .2879-.0354 1.5514,1.2174 1.5763,1.2403 2.0165,2.1178 3.9343,4.3479 5.1588,7.021 .6757,2.7303 .2008,5.4726-.8322,8.0397-1.2518,2.4294-2.4662,4.7957-3.1396,7.4586l-1.2755,.611c.6608-2.6734 1.8544-5.0514 3.1307-7.4768 1.0515-2.5236 1.5236-5.2362 .8851-7.9369-1.2125-2.657-3.1221-4.8734-5.1315-6.9706-1.6966-1.5264-1.7663-.463-.8227-1.7523 .1108-.1514-.3413,.1748-.4674,.3138-.4968,.547-.747,1.2725-1.0426,1.9273-.6884,2.2738-1.2195,4.6055-2.2653,6.7513-1.0342,2.8006-.4296,5.6705 .5662,8.4136 1.7871,4.125 4.4801,7.6282 7.6057,10.8477l-1.2052,.7385z"/>
<path d="m317.9413,504.1733c-.0431-5.1056-.0734-10.1902 .409-15.2754 .1428-4.4899 1.0853-8.5669 3.4103-12.4166 2.9898-3.0808 7.0519-5.6622 11.3256-6.4207 3.7298-.3383 7.4895,.6154 10.5558,2.7579 2.8364,2.594 1.044,5.3854-.797,7.9654-2.755,3.5079-6.3818,6.1687-9.5342,9.2961-2.7397,3.1379-5.7562,5.9596-9.0819,8.4611-2.7166,2.0014-5.6752,2.5826-8.9311,2.7924-1.8485,.0611-.9214,.0394-2.7812,.065l1.1427-.8328c1.8575-.0287 .9318-.005 2.7772-.0711 2.2867-.1574 4.7106-.3208 6.48-1.4317 3.3403-2.4838 6.363-5.303 9.0981-8.4463 3.1399-3.1353 6.7652-5.787 9.5388-9.2729 1.805-2.4956 3.6937-5.2252 .8975-7.7657-3.0553-2.112-6.789-3.0387-10.49-2.6678-3.4376,.6626-6.5638,2.3681-8.914,5.0021-2.3514,3.8228-3.2962,7.8815-3.4408,12.3607-.4868,5.0793-.471,10.1578-.4046,15.2582l-1.2602,.6421z"/>
<path d="m180.5157,543.5532c2.1817,.3244 4.3608,.4774 6.563,.5152l-1.1389,.8241c-2.2064-.0483-4.3915-.2061-6.5785-.5223l1.1544-.817z"/>
<path d="m201.9442,544.9817c4.3934,.5498 8.8083,.8925 13.2302,1.0947 2.8152,.0757 5.6293,.3636 8.3982-.2581l-1.1287,.8573c-2.7775,.5786-5.5943,.301-8.4111,.2221-4.4262-.2063-8.8442-.5585-13.243-1.0992l1.1544-.817z"/>
<path d="m269.0768,550.34c4.1882-.5232 8.4033-.7705 12.6161-.991l-1.1298,.8299c-4.2145,.2212-8.4315,.4711-12.6201,1.0065l1.1337-.8454z"/>
<path d="m309.082,551.9465c4.8345,.005 9.669,.004 14.5035,.003 4.076-.1905 8.0868,.0773 12.1157,.653 1.2926,.5489 3.4532,.3166 4.3756,1.5239l-1.2244,.7281c-.8838-1.1558-3.0809-.8927-4.3043-1.439-4.0226-.574-8.0299-.8214-12.0984-.6408l-14.512,.003 1.1442-.8313z"/>
<path d="m217.6585,539.2674c4.3934,.5498 8.8083,.8925 13.2302,1.0947 2.5071,.1015 5.0162,.1318 7.525,.1548l-1.1421,.8281c-2.5087-.0249-5.0176-.0575-7.5245-.1615-4.4262-.2063-8.8442-.5585-13.243-1.0992l1.1544-.817z"/>
<path d="m207.6633,525.1597c5.9467,1.0685 11.8773,2.2432 17.8671,3.053 2.514,.3282 5.0418,.5134 7.57,.6847l-1.1423,.818c-2.5278-.1758-5.0553-.3656-7.5687-.6971-5.9962-.8177-11.9342-1.9944-17.8899-3.0559l1.1639-.8028z"/>
<path d="m241.9442,529.2674 2.2244,.2374-1.1455,.8139-2.2333-.2344 1.1544-.817z"/>
<path d="m224.8014,517.8389c4.7536,.6156 9.5387,.902 14.3252,1.0953 4.0424,.1438 8.0878,.1589 12.1322,.1659l-1.1413,.8288c-4.0437-.009-8.0883-.0271-12.1297-.1745-4.7917-.1978-9.581-.491-14.3408-1.0986l1.1544-.817z"/>
<path d="m244.8014,512.1246c5.6699,.6351 11.3629,.9156 17.0379,1.5081 3.6089,.4128 7.2304,.688 10.8548,.9162l-1.1409,.8179c-3.6231-.233-7.2433-.5123-10.851-.9259-5.6806-.5915-11.3795-.8682-17.0553-1.4994l1.1544-.817z"/>
<path d="m292.1093,540.5185c6.3638,.007 12.7277,.006 19.0915,.006 5.1708,.1631 10.3756-.2908 15.5326,.1713l1.7792,.2379-1.1515,.8136-1.7741-.2338c-5.1522-.4408-10.3479-.0138-15.5127-.1705l-19.1078,.006 1.1428-.8303z"/>
<path d="m310.6807,536.2328c7.0926,.0106 14.1853,.007 21.278,.006l5.8332-.002-1.1328,.823-5.8269-.002c-7.0981-.002-14.1962-.005-21.2943,.006l1.1428-.8303z"/>
<path d="m319.261,525.1587c5.9924,1.0036 11.9508,2.2193 17.9713,3.054 2.4548,.3291 4.924,.5138 7.3935,.6847l-1.1429,.8182c-2.4693-.1754-4.9381-.3647-7.3925-.6971-6.0254-.8427-11.9894-2.0612-17.9897-3.0549l1.1603-.8049z"/>
<path d="m356.2249,501.9465c5.6475,.007 11.2951,.005 16.9426,.005l8.5549-.007-1.1516,.8367c-2.8449-.0115-5.6898-.003-8.5347-.007l-16.9554,.005 1.1442-.8313z"/>
<path d="m366.2299,492.1246c5.1992,.7894 10.3286,1.6543 15.5988,1.7228l-1.1351,.8222c-5.2747-.0826-10.4109-.9613-15.6181-1.7281l1.1544-.817z"/>
<path d="m377.6482,488.9115c2.2045-.2093 4.3856-.4723 6.5651-.8607l-1.1225,.8458c-2.1839,.3795-4.3703,.6405-6.5763,.8603l1.1337-.8454z"/>
<path d="m384.8014,482.1246c2.8885,.5797 1.3706,.2817 4.5545,.89l-1.1496,.8026c-3.1878-.6055-1.6682-.313-4.5593-.8756l1.1544-.817z"/>
<path d="m384.971,477.8386c3.9698,.5514 7.9534,.7131 11.9262,.1688l-1.127,.8419c-3.9833,.5168-7.9729,.3498-11.9509-.1932l1.1518-.8175z"/>
<path d="m400.5204,470.874c2.7183,.6255 1.3712,.3075 4.0412,.9535l-1.1578,.7999c-2.6708-.6454-1.3217-.3283-4.0473-.9507l1.1639-.8028z"/>
<path d="m163.3005,643.3793c28.5754,.0451 57.1509,.0479 85.7263,.0557 31.5286,.007 63.0571,.0007 94.5857-.0399 2.9285-.2587 5.8727,.2877 8.7766-.2005l-1.1334,.8505c-2.8964,.4148-5.8178-.0818-8.7325,.1413-31.4919-.0407-62.9839-.047-94.4758-.0399-28.6266,.008-57.2531,.0107-85.8796,.0557l1.1327-.8229z"/>
<path d="m156.2249,681.9465c22.5177,.0401 45.0355,.0435 67.5532,.0496 29.431-.592 58.8685-2.0847 88.0473-6.075l-1.0635,.7949c-29.1648,3.9354-58.5808,5.4215-87.9913,6.0122-22.5633,.006-45.1266,.01-67.6899,.0496l1.1442-.8313z"/>
<path d="m151.9392,701.9465c26.3153,.0486 52.6307,.0503 78.946,.0573l119.992-.006c5.2709-.002 10.5418-.005 15.8128-.007l-1.0225,.7429c-5.2647-.002-10.5294-.005-15.794-.007-39.9916-.0102-79.9832-.0102-119.9748-.006-26.3679,.007-52.7358,.009-79.1036,.0573l1.1442-.8313z"/>
<path d="m241.7017,730.5216c18.1204,.1812 36.2189-1.0083 54.3207-1.6965 8.4668-.3171 16.9355-.5784 25.4046-.8277l-1.0958,.801c-8.4565,.2373-16.9127,.4871-25.3668,.8016-18.128,.6906-36.2504,1.8777-54.3968,1.7456l1.1341-.824z"/>
<path d="m142.6264,730.8714c26.7083,2.1857 53.5938,2.0881 80.3764,1.8974 33.2659-.5753 66.5587-.8385 99.7364-3.5156l-1.0428,.7704c-33.1613,2.634-66.433,2.8963-99.6798,3.4627-26.8373,.1982-53.7744,.3104-80.542-1.8069l1.1517-.808z"/>
<path d="m174.7316,670.6966c26.0471,1.0041 52.1252,.9998 78.1883,1.1427 25.6307,.1155 51.2616,.1396 76.8925,.1533l-1.0106,.7341c-25.6267-.0351-51.2534-.0622-76.8799-.1631-26.1095-.1302-52.2323-.1201-78.3281-1.0512l1.1378-.8158z"/>
<path d="m192.2795,651.9476c16.9913,.0267 33.9827,.0274 50.974,.0319 16.5152-.0164 33.0255,.1894 49.5331-.3477l-1.0628,.7773c-16.5047,.5149-33.012,.3078-49.5238,.3358-17.0206,.005-34.0412,.005-51.0619,.0319l1.1413-.8292z"/>
<path d="m210.8588,625.1579c27.4651,4.4655 55.342,5.4908 83.0976,6.6492 19.3194,.5626 38.6443,1.3494 57.9767,.961 11.799-.237 19.2113-.7937 30.7448-1.4957l-1.0326,.7598c-11.4616,.6835-18.9972,1.2361-30.713,1.4636-19.33,.3753-38.6523-.4151-57.9693-.9731-27.8088-1.1534-55.7299-2.1884-83.2613-6.5584l1.1572-.8063z"/>
<path d="m222.1093,611.947c21.3342,.0351 42.6684,.0397 64.0026,.0464 23.4769,.004 11.8316,.1218 34.936-.3412l-1.0093,.7364c-23.1042,.4558-11.457,.338-34.9418,.3423-21.3768,.007-42.7536,.0113-64.1303,.0464l1.1428-.8303z"/>
<path d="m175.1366,603.3761c22.1128,.0379 44.2256,.0389 66.3384,.0433l96.6913-.002-1.0284,.7472c-32.2283-.004-64.4567-.007-96.685-.002-22.1525,.004-44.3051,.005-66.4576,.0433l1.1413-.8292z"/>
<path d="m203.1356,596.5853c24.8097,1.9285 49.7333,1.9555 74.6039,2.2341 26.4187,.3163 52.8245,.516 79.228-.5009l-1.0514,.77c-26.3889,.9808-52.7788,.7641-79.1816,.4594-24.917-.2654-49.8837-.2851-74.7437-2.1538l1.1447-.8087z"/>
<path d="m262.1093,611.947c16.5541,.0312 33.1083,.0257 49.6625,.0265 19.9253-.785 39.8351-1.8105 59.7705-2.341 8.5122-.0304 17.0123,.4178 25.5088,.8663l-1.0981,.7889c-8.4863-.4561-16.9765-.9096-25.4792-.8746-19.9357,.5315-39.8456,1.5665-59.7718,2.3377-16.5785,.0008-33.1569-.005-49.7354,.0265l1.1428-.8303z"/>
<path d="m326.5652,589.0904c11.2926,.2326 22.5799,.7657 33.8738,1.0524l6.3517,.1326-1.1039,.7984-6.3477-.1362c-11.3071-.2887-22.6087-.8248-33.9153-1.0181l1.1413-.8292z"/>
<path d="m366.4307,592.6932c10.1408-9.2361 19.9792-18.7776 30.3154-27.8002 6.7266-5.9112 14.2003-10.7901 21.7603-15.5336l1.2531-.4862c-7.5682,4.7364-15.0503,9.6081-21.7815,15.5194-10.3186,9.0046-20.132,18.5339-30.2461,27.7618l-1.3012,.539z"/>
<path d="m368.1972,617.1381c9.1767-6.3447 17.3446-13.9961 25.7808-21.2582 6.8651-5.9097 13.7889-11.751 20.6654-17.6474 13.4884-11.7433 6.9629-5.8975 19.596-17.5157l1.2005-.4914c-12.6432,11.6263-6.1138,5.7773-19.6077,17.5253-6.8695,5.8932-13.7876,11.7297-20.6445,17.6377-8.4097,7.2459-16.5442,14.8875-25.6816,21.2341l-1.3089,.5156z"/>
<path d="m372.3228,649.1604c19.2425-22.1926 40.2722-42.7876 61.0731-63.5058 15.4947-14.8031 29.5925-30.9346 43.024-47.6004l1.1988-.5116c-13.4638,16.674-27.5835,32.8226-43.0958,47.6454-20.7585,20.6778-41.7439,41.2376-60.9127,63.4176l-1.2874,.5548z"/>
<path d="m366.2532,660.3388c11.0976-8.6349 19.1765-20.4059 27.1932-31.785 7.7208-11.799 15.37-23.6409 22.7708-35.6432l1.2188-.5384c-7.4121,12.001-15.0688,23.8438-22.7789,35.6555-7.9934,11.3704-16.0462,23.1261-27.0895,31.7919l-1.3144,.5192z"/>
<path d="m390.0377,650.0253c.6583-.896 1.2561-1.8397 1.9749-2.6879 5.73-6.7627 12.5587-12.6029 19.1033-18.5338 15.0913-13.6764 5.3521-4.6455 20.9087-19.3015 13.0351-12.5507 25.3075-25.8436 37.202-39.468l1.2102-.5109c-11.9125,13.6267-24.1963,26.9278-37.234,39.495-15.5461,14.6605-5.8012,5.6153-20.877,19.2909-6.5199,5.9143-13.3186,11.7394-19.0335,18.4755-.7138,.8413-1.3085,1.7767-1.9628,2.665l-1.2917,.5758z"/>
<path d="m358.9438,728.7502c5.3763-5.2675 10.1979-11.0472 14.7729-17.0124 5.5112-7.5306 11.2236-14.8419 17.8263-21.4461 5.0862-5.12 10.8098-9.6496 15.3882-15.2504 2.1834-3.0248 3.2729-6.6074 4.8891-9.9384 1.3304-2.4253 2.9656-4.5482 4.9858-6.427 2.8424-1.8846 5.0298-4.352 6.9223-7.149l1.2931-.5649c-1.8858,2.804-4.0412,5.3145-6.9078,7.1782-2.0263,1.8649-3.6662,3.9638-5.0064,6.3785-1.6201,3.3411-2.7297,6.9226-4.8882,9.9736-4.5623,5.6263-10.3113,10.1467-15.4035,15.2723-6.6093,6.5928-12.3236,13.8965-17.8288,21.4273-4.5653,5.9644-9.3775,11.7427-14.7372,17.0173l-1.3059,.5409z"/>
<path d="m364.8348,703.9589c10.9101-12.8437 22.9186-24.6918 33.9311-37.4438 3.4734-4.0221 6.8222-8.15 10.2334-12.2251 12.4011-15.3233 24.514-30.8767 36.445-46.5676l1.1921-.5127c-11.9499,15.6906-24.0736,31.2496-36.4751,46.5869-3.4062,4.0744-6.7504,8.2015-10.2186,12.2233-10.9769,12.7286-22.95,24.5543-33.8136,37.384l-1.2943,.5551z"/>
<path d="m345.7543,747.0006c5.84-11.0834 10.6481-22.6468 16.3591-33.7959 3.9629-7.8699 7.755-15.8219 11.4911-23.8011l1.2234-.5573c-3.7429,7.9795-7.5395,15.9329-11.4971,23.809-5.7011,11.1326-10.4929,22.6794-16.2894,33.763l-1.287,.5823z"/>
<path d="m375.9204,750.0186c8.4153-12.0449 15.3811-25.0208 22.8611-37.6491 6.4649-11.2209 14.4019-21.4028 22.5372-31.4294l1.2349-.5265c-8.1489,10.0203-16.1001,20.1954-22.5662,31.4206-7.4647,12.6107-14.4119,25.5668-22.7704,37.622l-1.2966,.5623z"/>
<path d="m365.4629,759.8188c9.5044-3.1218 18.926-7.3569 26.7335-13.7274 1.8498-1.5093 3.5474-3.196 5.3211-4.794 7.0305-7.2502 12.5543-15.6767 16.0296-25.1468l.5853-2.483 1.2634-.6075-.5853,2.5017c-3.4769,9.4948-9.0052,17.9446-16.0396,25.2239-1.7729,1.6037-3.4291,3.3466-5.3186,4.8111-8.6698,6.7197-18.6947,11.7204-29.0997,15.0847l1.1103-.8626z"/>
<path d="m398.9532,698.0814c5.0453-8.3908 11.2667-15.9983 16.4756-24.2899 1.4225-2.2643 2.7397-4.5931 4.1096-6.8897 5.4663-9.1728 8.995-19.2554 12.5192-29.277l1.2254-.573c-3.5308,10.0271-7.0557,20.1197-12.5152,29.3047-4.1556,6.9824-3.8016,6.6362-8.2902,13.2235-3.3716,4.9479-7.0516,9.7018-10.3178,14.7215-.6799,1.0449-1.2797,2.1397-1.9196,3.2095l-1.2871,.5704z"/>
<path d="m364.9998,667.1457c4.9205-5.1981 8.5673-11.3822 12.4328-17.3583 2.7931-4.6984 6.5999-8.5208 10.5528-12.2277 2.4299-2.4525 1.2922-1.2144 3.427-3.7017l1.2925-.5472c-2.1319,2.5004-.9949,1.257-3.4249,3.7175-3.9522,3.7014-7.774,7.5045-10.5695,12.1979-3.873,5.975-7.52,12.1559-12.4048,17.3887l-1.3059,.5308z"/>
<path d="m363.6954,638.5616c10.6458-3.3618 20.1793-8.9734 29.4944-14.9932 4.7679-3.4324 9.5834-6.798 13.6221-11.0847l1.2891-.5387c-4.0344,4.3136-8.8674,7.6804-13.6432,11.1293-10.0727,6.5185-20.3882,12.658-31.8784,16.3489l1.1161-.8617z"/>
<path d="m364.7992,613.229c3.3838-1.2349 6.7005-2.6065 9.9594-4.1405 1.9135-.9006 4.9139-3.4589 6.5882-4.7809 2.4031-1.885 4.6823-3.9004 6.8762-6.0212l3.8856-1.6034c-2.1916,2.1493-4.4784,4.1796-6.8972,6.0748-7.1103,5.7071-15.0989,10.1305-23.7359,13.0848l3.3236-2.6136z"/>
<path d="m361.9317,604.8488c4.2138-5.3521 8.9948-10.164 13.6751-15.0923 2.0871-2.0106 3.9958-4.1754 5.8274-6.4159l3.8673-1.649c-1.8247,2.2645-3.7268,4.4536-5.8427,6.457-4.6483,4.9276-9.4792,9.666-13.6257,15.049l-3.9014,1.6512z"/>
<path d="m363.0218,583.2122c4.7536-2.4507 5.3708-2.9998 10.2896-7.42 1.6087-1.5678 3.1357-3.2092 4.742-4.7791l3.9031-1.6092c-1.628,1.5604-3.1578,3.206-4.7542,4.7988-5.195,4.7583-11.1607,8.5693-17.4899,11.6568l3.3094-2.6472z"/>
<path d="m362.0817,576.5723c4.4433-3.4274 8.9666-6.72 13.6624-9.792 2.2636-1.4149 4.4004-2.99 6.4704-4.6694l3.9058-1.573c-2.0606,1.7094-4.1956,3.3013-6.4721,4.7191-4.6859,3.056-9.2239,6.2984-13.6232,9.7577l-3.9433,1.5576z"/>
<path d="m368.736,563.2122c4.7396-2.4782 6.2622-3.6028 12.359-6.6983 .4714-.2393-.9323,.4987-1.3984,.748l3.9235-1.5141c-7.5922,4.4433-10.2439,5.6308-18.1935,10.1116l3.3094-2.6472z"/>
<path d="m358.7507,553.3998c6.2925-2.2064 12.0982-5.5485 18.0832-8.4423 3.1598-1.5683 6.3684-3.0112 9.4541-4.7233l-3.2813,2.6455c-3.0908,1.679-6.2906,3.1221-9.4405,4.6854-5.9961,2.9241-11.8449,6.2221-18.1542,8.4483l3.3387-2.6137z"/>
<path d="m337.3533,695.2089c4.3889-1.2003 8.6792-2.8672 12.8026-4.7864l-3.2907,2.6139c-4.1695,1.8798-8.4675,3.6095-12.913,4.7088l3.4011-2.5362z"/>
<path d="m340.3809,668.0699c5.7466-.6372 11.5136-1.0297 17.2947-.8866l3.2069,.1711-3.399,2.4424-3.1947-.164c-5.7866-.105-11.5601,.2952-17.3083,.9656l3.4003-2.5284z"/>
<path d="m334.5119,658.2581c5.028,.0191 10.0561,.0131 15.0841,.009l2.09-.002-3.4144,2.4807-2.0845-.002c-5.0359-.004-10.0719-.0104-15.1078,.009l3.4326-2.494z"/>
<path d="m333.433,652.735c6.6171,.5586 13.26,1.092 19.9035,.9193 2.6148-.0787 5.1933-.304 7.767-.7524l-3.3709,2.5342c-2.5791,.4009-5.1632,.6178-7.7755,.685-6.6674,.1246-13.3289-.4096-19.9725-.9328l3.4484-2.4533z"/>
<path d="m337.3533,640.9232c2.8251-.3137 1.3663-.1583 4.3767-.4634l-3.3824,2.511c-3.0195,.317-1.5545,.1529-4.3954,.4887l3.4011-2.5362z"/>
<path d="m334.707,625.7824c4.6436,1.4266 9.3501,2.6028 14.1491,3.3579l-3.4538,2.426c-4.8028-.7917-9.5033-2.0141-14.1763-3.3693l3.481-2.4146z"/>
<path d="m340.2262,608.2581c2.243,.01 4.4861,.009 6.7291,.009l-3.4076,2.4758c-2.2514,.0002-4.5028-.0008-6.7541,.009l3.4326-2.494z"/>
<path d="m343.2656,597.0211c2.3324,.424 4.6513,.3006 6.9905,.0862l-3.3874,2.5041c-2.3619,.1748-4.7062,.2554-7.0585-.1378l3.4554-2.4526z"/>
<path d="m335.9558,584.1648c3.067,.3328 1.4759,.1707 4.7738,.4815l-3.425,2.4399c-3.3178-.3089-1.714-.1509-4.8119-.4705l3.4631-2.4509z"/>
<path d="m323.2521,709.6882c5.7534,.2146 11.4803-.3851 17.2046-.8649 2.9789-.2289 1.5276-.195 4.3533-.1262l-3.4199,2.4754c-2.7931-.0314-1.3546-.0739-4.3146,.1504-5.7409,.4707-11.4833,1.0248-17.2517,.8561l3.4283-2.4908z"/>
<path d="m324.6807,725.4025c6.1023-.1583 12.1806,.4207 18.2575,.8849 3.1424,.2211 1.6181,.1216 4.5726,.3011l-3.4284,2.4582c-2.9472-.1909-1.4269-.086-4.5606-.3173-6.0794-.4796-12.1632-1.0443-18.2693-.8361l3.4283-2.4908z"/>
<path d="m323.0834,731.1152c6.9959,.0319 13.9919,.0261 20.9878,.0184l7.7087-.0107-3.4113,2.4784-7.6792-.0107c-7.0129-.008-14.0258-.0133-21.0386,.0185l3.4326-2.494z"/>
<path d="m326.2779,741.1183c7.2984,.0251 14.5969,.0248 21.8953,.019 1.001-.002 2.002-.005 3.003-.007l-3.3915,2.4641c-.9944-.002-1.9887-.005-2.9831-.007-7.3159-.006-14.6318-.006-21.9477,.019l3.424-2.4877z"/>
<path d="m330.2262,752.5438c5.5653,.0227 11.1308,.016 16.6961,.012l7.6183-.002-3.4055,2.4742-7.6123-.002c-5.5764-.004-11.1529-.0106-16.7292,.012l3.4326-2.494z"/>
<path d="m357.3691,746.8295c2.5139,.0122 5.0278,.0112 7.5417,.0129l-3.3972,2.4682c-2.5257,.002-5.0514,.0007-7.5771,.0129l3.4326-2.494z"/>
<path d="m334.5119,745.4009c8.5907,.0475 17.1816,.0335 25.7725,.0255l6.692-.01-3.3894,2.4625-6.6651-.01c-8.6142-.008-17.2285-.0218-25.8426,.0255l3.4326-2.494z"/>
<path d="m350.7324,759.6914c7.346-.0309 14.6981,.3474 22.0001-.5847 5.3055-1.1527 10.8451-1.0626 16.048-2.643l-3.3438,2.5767c-5.2327,1.4475-10.7444,1.4672-16.0566,2.565-7.3295,.8618-14.7008,.4779-22.0674,.5706l3.4197-2.4845z"/>
<path d="m381.9457,750.243c3.942-6.0543 7.6075-12.2798 10.5427-18.8866l.8241-2.6127 3.7974-1.7927-.8181,2.6633c-2.9242,6.6158-6.5854,12.8413-10.4728,18.934l-3.8734,1.6947z"/>
<path d="m367.4698,740.1793c6.5741-3.1504 13.1663-6.2127 19.6323-9.5852-3.3612,2.219 1.0938-1.2118 1.5956-1.7107l3.9114-1.6265c-2.4973,2.6535-5.4455,4.275-8.7706,5.9568-6.4801,3.374-13.1148,6.3866-19.661,9.6227l3.2923-2.657z"/>
<path d="m370.019,726.1749c1.8655-5.0767 2.9899-10.3747 4.3486-15.5971 .7859-2.9994 .3506-1.5743 1.2806-4.2828l3.8242-1.7881c-.9674,2.6798-.5193,1.2631-1.3128,4.26-1.3853,5.2181-2.4878,10.5212-4.296,15.6198l-3.8445,1.7882z"/>
<path d="m158.7977,563.9724c3.0712,.011 1.4786,.007 4.7777,.011l-3.4024,2.4719c-3.3148,.004-1.7122,0-4.808,.011l3.4326-2.494z"/>
<path d="m144.5119,575.4009c6.3681,.5591 12.7493,.9317 19.1359,1.1937l-3.3965,2.446c-6.3973-.2754-12.7851-.693-19.172-1.1457l3.4326-2.494z"/>
<path d="m144.5119,582.5438c8.7243-.1436 17.4326,.3198 26.1452,.6932l5.1585,.2091-3.3468,2.4104-5.1469-.2181c-8.7443-.3726-17.4873-.8052-26.2427-.6007l3.4326-2.494z"/>
<path d="m150.6807,599.0899c5.227,.008 10.454,.006 15.681,.005l-1.13,.821-15.6937,.005 1.1428-.8303z"/>
<path d="m144.9665,601.947c6.6911,.009 13.3822,.007 20.0733,.005l-1.1294,.8205-20.0867,.005 1.1428-.8303z"/>
<path d="m144.9665,613.3756c5.6467,.007 11.2934,.004 16.9401,.004 3.6899,.2327 1.8447,.0956 5.5357,.4116l-1.1392,.813c-3.6875-.3123-1.8445-.1784-5.5288-.4019l-16.9505,.004 1.1428-.8303z"/>
<path d="m142.2795,619.0904c8.4909,.0107 16.9819,.0101 25.4728,.009 5.4977-.002 2.8167,.0628 8.0435-.1761l-1.1198,.8213c-5.2259,.2286-2.5461,.1676-8.0398,.1657-8.4993-.0009-16.9987-.002-25.498,.009l1.1413-.8292z"/>
<path d="m143.3677,630.518c6.0693,.007 12.1386,.006 18.208,.006l-1.1276,.8192-18.2246,.006 1.1442-.8313z"/>
<path d="m142.1093,631.947 8.6488,.005-1.1286,.82-8.6629,.005 1.1428-.8303z"/>
<path d="m137.9896,651.771c6.9472-.5978 13.9219-.7867 20.8894-.9855l-1.1137,.814c-6.9743,.1994-13.9565,.3893-20.9086,1.012l1.1329-.8405z"/>
<path d="m141.3614,656.2349c15.1433,.0212 30.2867,.0223 45.4301,.0219l-1.0768,.7823c-15.1634-.0004-30.3269,.0007-45.4903,.0219l1.137-.8261z"/>
<path d="m174.9752,670.8729c4.7715,.8881 9.5805,.972 14.414,1.0394l-1.1059,.8011c-4.8508-.0694-9.6785-.1546-14.4685-1.0356l1.1603-.8049z"/>
<path d="m122.2795,669.0904c16.7856-1.6477 33.6651-1.9392 50.5154-2.3086l-1.0517,.7677c-16.8814,.3782-33.7907,.6922-50.605,2.3701l1.1413-.8292z"/>
<path d="m139.082,661.9465c3.4933,.41 6.989,.4892 10.5015,.4574l-1.1322,.824c-3.5161,.026-7.0145-.0709-10.5135-.4501l1.1442-.8313z"/>
<path d="m138.0017,683.7293c4.9226,.6906 2.2447,.3566 8.0391,.9555l-1.1244,.7994c-5.8143-.5947-3.1255-.2634-8.0719-.9487l1.1572-.8063z"/>
<path d="m145.3068,687.6624 17.3587,.0173-1.0923,.7936c-5.8021,.004-11.6042,.006-17.4064,.0173l1.1399-.8282z"/>
<path d="m132.2795,696.2333c7.7022,.009 15.4275-.811 23.0222-2.0705l-1.1132,.8368c-7.6079,1.2405-15.3379,2.0607-23.0503,2.0628l1.1413-.8292z"/>
<path d="m137.2458,709.0925c12.3632,.0223 24.7264,.0203 37.0897,.0168l-1.0894,.7915c-12.3786-.004-24.7572-.006-37.1358,.0168l1.1356-.825z"/>
<path d="m143.3728,717.8389c4.813,.6002 9.6562,.8964 14.5002,1.0952l2.1893,.0672-1.1398,.8227-2.1886-.0694c-4.849-.2035-9.6962-.5071-14.5154-1.0987l1.1544-.817z"/>
<path d="m134.2185,719.092c14.464,.0213 28.9279,.0205 43.3919,.0191l-1.0844,.7879c-14.4815-.001-28.963-.002-43.4445,.0191l1.137-.8261z"/>
<path d="m136.2249,737.6608c3.9791,.006 7.9582,.006 11.9374,.006l-1.1276,.8193-11.9539,.006 1.1442-.8313z"/>
<path d="m135.9405,753.9724c7.5223,.0232 15.0447,.0264 22.5671,.0385 21.3886,.0566 42.7773,.0659 64.1659,.061l42.7337-.0218-3.2188,2.3386c-14.2245-.007-28.4491-.0155-42.6737-.0218-21.4446-.005-42.8892,.005-64.3338,.061-7.5577,.0121-15.1154,.0153-22.6731,.0385l3.4326-2.494z"/>
<path d="m187.5641,761.4967c10.8865,2.5741 22.0693,2.9109 33.1888,2.382l6.0733-.6689-3.2868,2.4421-6.0704,.6357c-11.1872,.4934-22.4185,.1147-33.3859-2.3764l3.481-2.4146z"/>
<path d="m147.7187,754.1636c18.1445,1.9674 36.3817,2.6554 54.6148,3.2645 22.9325,1.235 45.8605,2.5014 68.8149,3.2491l7.4661,.1992-3.2856,2.3727-7.4286-.2288c-22.9143-.8126-45.8029-2.11-68.698-3.333-18.3346-.5972-36.6704-1.2722-54.9319-3.0705l3.4484-2.4533z"/>
<path d="m319.1351,763.9755c7.2011,.0228 14.4023,.0208 21.6035,.0227 8.6115,.005 17.2229,.006 25.8344-.005l-3.3752,2.4523c-8.6069-.0113-17.2137-.0103-25.8206-.005-7.222,.002-14.4441-0-21.666,.0227l3.424-2.4877z"/>
<path d="m386.0442,763.5952c3.577-4.9567 7.2385-9.8354 10.4403-15.0468 1.7579-2.8669 3.6009-5.6684 5.1834-8.6373l3.848-1.7304c-1.5702,2.9925-3.4249,5.7995-5.1994,8.6733-3.183,5.2209-6.862,10.077-10.3663,15.0816l-3.906,1.6596z"/>
<path d="m357.3306,561.7055c3.9248-7.6055 8.214-15.0194 12.1918-22.6017 3.0619-5.6264 6.1512-11.1785 10.8816-15.5584l3.887-1.5879c-4.8273,4.2908-7.9288,9.8229-11.0032,15.4513-3.9522,7.5582-8.2151,14.9505-12.1084,22.5343l-3.8488,1.7624z"/>
<path d="m356.3689,559.3794c4.4126-7.0325 7.9008-14.5862 11.7639-21.9253 1.4534-2.9112 3.2694-5.6112 5.0332-8.3368l6.4114-2.8128c-1.7887,2.7202-3.6665,5.3911-5.1297,8.3095-3.8763,7.3146-7.3886,14.8235-11.6231,21.9408l-6.4556,2.8246z"/>
<path d="m292.8244,559.0621c5.5293,.6595 11.0963,.912 16.6584,1.094 4.5018,.127 9.0057,.1442 13.509,.1463l9.7845-.0115 9.6797-.005c3.8124-.1841 7.5729,.497 11.35,.8984 2.865,.2989 5.7431,.4176 8.6211,.492l-5.7244,4.1339c-2.8837-.0916-5.7665-.2342-8.6358-.5498-3.7662-.4139-7.5226-1.0263-11.3254-.8225l-9.6745,.001c-3.2579,.007-6.5157,.007-9.7736,.001-4.4944-.0145-8.9892-.0436-13.4815-.1941-5.5956-.1978-11.1914-.4893-16.7593-1.1l5.7718-4.0848z"/>
<path d="m374.7422,538.4342c2.8063-4.2909 5.0097-7.766 9.0075-11.0617 4.181-2.846 1.1257-.8371 9.4655-5.544l-5.4942,4.4061c4.9131-2.962 5.7338-3.5016 2.5477-1.4802-1.0959,.8596-2.5483,1.932-3.5018,2.9539-2.2065,2.3648-3.6703,5.331-5.5146,7.9599l-6.5101,2.766z"/>
<path d="m421.774,477.564c3.1376-4.8444 6.2047-9.7349 9.9502-14.1377l1.8342-1.7946 3.8884-1.6022-1.8564,1.7612c-3.7798,4.3485-6.8378,9.2219-9.9412,14.0642l-3.8752,1.7091z"/>
<path d="m433.2656,452.7354c4.2388,.7452 8.5084,1.2726 12.7847,1.7428l-3.4048,2.4168c-4.2908-.4784-8.5705-1.0317-12.8353-1.707l3.4554-2.4525z"/>
<path d="m433.3522,469.2911c3.5782-4.0065 8.3693-6.4694 12.7691-9.4073l1.7054-1.1196 3.9329-1.5348c-.572,.3725-1.144,.745-1.716,1.1175-4.3606,2.9627-9.2137,5.3166-12.7738,9.3214l-3.9176,1.6227z"/>
<path d="m412.0817,499.4294c6.6543-4.5973 13.1601-9.4239 19.4374-14.5234l3.1858-2.6377 3.8546-1.5544-3.1934,2.6442c-6.2364,5.1046-12.7295,9.9053-19.3411,14.5138l-3.9433,1.5576z"/>
<path d="m426.094,509.6781c1.9657-2.805 3.9548-5.5859 6.016-8.3214l1.2776-.5501c-2.0608,2.728-4.045,5.5036-6.0025,8.3067l-1.2911,.5649z"/>
<path d="m417.1805,522.8825c2.1472-4.2078 5.7396-7.0595 9.53-9.6967 1.6604-.8706 3.1351-1.9473 4.554-3.1575l1.3066-.5299c-1.4109,1.2274-2.8763,2.316-4.5521,3.1726-3.7859,2.6215-7.4059,5.4338-9.5467,9.6357l-1.2917,.5758z"/>
<path d="m421.8036,534.2984c3.7628-3.8007 6.3361-8.4852 9.3704-12.8283 1.4457-2.1255 .78-1.0732 2.0098-3.1491l1.2889-.5724c-1.2271,2.0873-.5613,1.0308-2.0103,3.1614-3.0496,4.3318-5.5977,9.0347-9.3583,12.838l-1.3005,.5504z"/>
<path d="m421.7459,534.091c4.1661-2.452 8.4946-4.6488 12.5517-7.2796l1.2991-.5033c-4.9243,2.9922-9.934,5.837-14.9502,8.6724l1.0994-.8895z"/>
<path d="m416.2532,541.7674c4.4164-2.9953 8.5325-6.381 12.7737-9.604l1.7047-1.3711 1.3044-.524-1.7059,1.376c-4.2482,3.2074-8.3454,6.6149-12.7626,9.6039l-1.3144,.5192z"/>
<path d="m423.4015,557.1503c4.1877-4.9909 7.9623-10.3192 11.8077-15.576 1.7385-2.6567 .9012-1.3584 2.5145-3.8933l1.2867-.5662c-1.6165,2.5396-.7782,1.2376-2.5172,3.9044-3.8457,5.2569-7.634,10.5724-11.7881,15.5911l-1.3035,.5399z"/>
<path d="m425.4185,557.0148c1.2021-4.7133 3.1639-9.1759 5.3583-13.5001l1.2746-.5755c-2.203,4.3076-4.1658,8.7599-5.3578,13.4648l-1.2751,.6108z"/>
<path d="m413.0633,574.3043c4.163-5.0408 8.013-10.1051 11.4097-15.6988l1.2738-.5638c-3.4421,5.6756-7.1703,10.5936-11.3869,15.7003l-1.2966,.5623z"/>
<path d="m427.6818,576.0531c4.1199-2.5495 7.9968-5.34 11.4405-8.7531l1.2934-.5353c-3.4305,3.4252-7.2942,6.2288-11.4195,8.7693l-1.3144,.5192z"/>
<path d="m417.5152,594.4645c3.4947-3.2213 6.2182-7.123 9.1238-10.8516l1.2843-.5506c-2.9085,3.7231-5.6151,7.6354-9.1023,10.8612l-1.3059,.5409z"/>
<path d="m422.1375,603.1916c5.49-3.352 10.0472-7.7666 13.6754-13.0483l1.4347-2.1251 1.2846-.5611-1.4383,2.1276c-3.6132,5.2959-8.155,9.729-13.6402,13.0963l-1.3162,.5105z"/>
<path d="m429.1158,602.8646c6.409-6.1409 11.393-13.4257 16.2329-20.8093l1.2495-.5479c-4.8305,7.3784-9.7951,14.6651-16.1789,20.8173l-1.3035,.5399z"/>
<path d="m424.3257,615.572c2.0105-3.4019 3.549-7.0241 4.9755-10.6983l1.2658-.5871c-1.4211,3.6743-2.9466,7.3013-4.9543,10.7031l-1.287,.5823z"/>
<path d="m428.8888,616.9482c2.3309-1.6232 4.5525-3.3986 6.7237-5.242l1.2974-.5252c-2.8746,2.4507-5.8177,4.7915-9.1205,6.6567l1.0994-.8895z"/>
<path d="m418.7776,642.8757c4.1692-4.7324 8.6457-9.1646 12.6347-14.0621 2.4309-3.361 1.2462-1.7451 3.5501-4.8508l1.2849-.5544c-2.3112,3.1066-1.1247,1.4881-3.5545,4.8593-3.9769,4.898-8.4381,9.3333-12.6187,14.0457l-1.2966,.5623z"/>
<path d="m419.1104,644.6245c5.1914-3.9321 10.2643-8.0138 14.8757-12.6192l1.2897-.5343c-4.6015,4.6121-9.6723,8.6898-14.851,12.6342l-1.3144,.5192z"/>
<path d="m429.1158,642.8646c2.9693-3.3603 5.679-6.9293 8.388-10.4984l1.2792-.5504c-2.7075,3.5675-5.4174,7.1321-8.3637,10.5089l-1.3035,.5399z"/>
<path d="m423.0605,663.0421c3.6319-4.8748 7.6189-9.5383 11.8507-13.9088l1.7059-1.8112 1.2942-.5406-1.7089,1.8147c-4.2383,4.3534-8.2289,9.0136-11.84,13.8927l-1.302,.5532z"/>
<path d="m418.9438,675.8931c4.2942-4.1326 8.3454-8.5019 11.8817-13.3019 1.4655-1.9264 2.687-4.0174 3.9503-6.0767l1.2857-.5683c-1.2657,2.0628-2.4844,4.1605-3.9524,6.0904-3.526,4.806-7.5722,9.1778-11.8594,13.3156l-1.3059,.5409z"/>
<path d="m425.9177,684.4706c4.4021-5.4018 8.2991-11.1855 11.8241-17.1899l1.4347-2.7671 1.2727-.5737-1.4358,2.7757c-3.5195,6.0049-7.4128,11.7864-11.7937,17.2018l-1.302,.5532z"/>
<path d="m430.3173,686.9482c4.7799-3.7214 9.2387-7.7756 13.3209-12.2541 2.6441-2.9497 4.5324-6.4344 6.2688-9.9641l1.2772-.579c-1.7345,3.5419-3.6211,7.0413-6.2643,10.005-4.673,5.1468-9.791,9.974-15.7021,13.6816l1.0994-.8895z"/>
<path d="m441.6347,652.8757c3.8032-5.1474 6.315-11.0635 8.7588-16.9379 1.3271-3.5891 .7301-1.8369 1.808-5.2509l1.2676-.5978c-1.0785,3.4241-.4809,1.6671-1.8096,5.2654-2.4417,5.8761-4.9452,11.7972-8.7281,16.959l-1.2966,.5623z"/>
<path d="m446.0837,656.0582c5.124-4.9871 9.7741-10.4442 14.0822-16.1451 2.1177-3.0643 3.9821-6.2804 5.7708-9.5426l1.2726-.57c-1.7902,3.2694-3.6593,6.4904-5.7731,9.5656-4.2994,5.7031-8.9458,11.1517-14.0407,16.1626l-1.3118,.5295z"/>
<path d="m443.5736,634.1218c4.4268-4.3471 8.9035-8.6235 12.4964-13.7031l1.3361-1.8569 1.289-.5584-1.3405,1.8572c-3.5808,5.0913-8.0541,9.3709-12.4798,13.7222l-1.3012,.539z"/>
<path d="m428.7748,630.1849c4.0916-5.5321 9.1287-10.2247 13.7372-15.3074l2.0321-2.4584 1.2839-.5462-2.0336,2.4661c-4.6017,5.0783-9.6427,9.7577-13.7176,15.2928l-1.302,.5532z"/>
<path d="m445.9204,605.7329c2.0972-3.2301 4.1787-6.4668 6.2654-9.7033l1.2881-.566c-2.0852,3.237-4.1789,6.4648-6.257,9.7069l-1.2966,.5623z"/>
<path d="m428.8888,586.9482c3.6697-1.5075 6.5161-4.0072 9.2616-6.7935l1.1908-1.6046 1.2922-.5583-1.1829,1.623c-3.3907,3.4601-7.1972,6.2519-11.6611,8.2229l1.0994-.8895z"/>
<path d="m430.3724,567.3216 11.9132-11.9096 1.2935-.5358c-3.9681,3.9671-7.9366,7.9337-11.9009,11.9045l-1.3059,.5409z"/>
<path d="m428.9489,556.9886c4.4255-5.7333 9.6453-10.7777 15.1284-15.4841 2.0999-1.908 4.4152-3.5125 6.8085-5.0181l1.3084-.5076c-2.4026,1.4957-4.7256,3.0926-6.8275,5.0032-5.4843,4.6892-10.7039,9.7225-15.1223,15.4483l-1.2956,.5583z"/>
<path d="m411.798,513.2011c4.6109-3.7465 9.8413-6.5916 14.8253-9.7863l2.3009-1.4387 1.3055-.5063-2.305,1.4384c-4.9735,3.1977-10.2052,6.0266-14.8148,9.7634l-1.3118,.5295z"/>
<path d="m450.4631,463.4161c-1.0831,4.6549-1.5579,9.4184-2.4393,14.1068-.2798,1.859-.888,3.6392-1.4444,5.4269l-1.2754,.6019c.5581-1.7838 1.1753-3.5581 1.4553-5.4141 .8938-4.6818 1.3549-9.444 2.4358-14.0952l1.268-.6263z"/>
<path d="m442.0587,491.9796c-.0611,4.5047-.0822,8.9862 .3994,13.4678 .3148,2.6885 .2238,1.3646 .287,3.9706l-1.2537,.6423c-.053-2.5956 .0347-1.2748-.2788-3.9614-.4837-4.4852-.4649-8.9685-.4141-13.4772l1.2602-.6421z"/>
<path d="m446.5112,524.829 .4013,1.8829-1.2411,.6659-.4122-1.8912 1.252-.6577z"/>
<path d="m449.0871,542.1246c2.2398,.2827 4.488,.4874 6.736,.6907l-1.1432,.8149c-2.2516-.2047-4.503-.4118-6.7472-.6886l1.1544-.817z"/>
<path d="m469.7966,544.5394c-2.9406,3.0395-5.4655,6.437-8.7373,9.138-2.3152,1.48-.9533,.6745-4.1449,2.3136l1.1051-.8786c.8345,.0527 .1822,.0611 1.7332-.9089 3.2899-2.6759 5.8008-6.0769 8.7419-9.111l1.302-.5532z"/>
<path d="m457.1772,588.9134c1.8675,2.5293 .8856,1.2243 2.9514,3.9109l-1.204,.7166c-2.0718-2.6872-1.0854-1.3829-2.9644-3.9091l1.217-.7184z"/>
<path d="m462.3466,622.7778c-4.7515-.2499-9.4273-1.0081-14.1048-1.829-3.3038-.6149-6.6521-.8703-10.0053-.9893l1.1463-.8265c3.3555,.1246 6.7053,.3896 10.0107,1.0093 4.6732,.8236 9.3476,1.579 14.0972,1.8042l-1.1442,.8313z"/>
<path d="m446.8471,605.5863c1.9053-5.8506 2.7398-11.9448 3.3763-18.0405 .3136-3.1832 .4556-6.3784 .553-9.5742l1.2564-.6353c-.0995,3.2008-.2444,6.4008-.5596,9.5889-.6367,6.0965-1.4589,12.1947-3.351,18.0502l-1.2751,.6108z"/>
<path d="m148.7977,562.5438c4.7533,.0183 9.5067,.009 14.2601,.009 3.7047-.002 7.4094-.005 11.1141-.007l8.748-.001 8.5429,0 9.4247,.002 9.1231-.002c2.7079,.2202 5.2919-.1477 7.929-.6832 2.5853-.512 5.2221-.6247 7.8491-.7044 2.8388-.0614 5.6785-.0525 8.5177-.0503l8.5794,.008c.9872-.127 2.0404,.2809 2.9255-.2411l-3.3608,2.6353c-.9899,.2097-1.9896,.0416-2.9959,.0984l-8.5794-.008c-2.8369-.001-5.6744-.01-8.5106,.0626-2.6165,.0917-5.2407,.2291-7.8111,.7645-2.6467,.5336-5.2656,.7806-7.9734,.6106l-9.1184-.002-9.4301,.002-8.5429,0-8.7442-.001c-3.6986-.002-7.3972-.005-11.0958-.007-4.7612-.0005-9.5225-.01-14.2837,.009l3.4326-2.494z"/>
<path d="m148.7977,563.9724c5.4897,.0187 10.9795,.0131 16.4692,.0161l16.9752-.007c3.6612-.1318 7.3041,.0619 10.9506,.2341l-3.4538,2.4785c-3.6315-.2557-7.259-.2937-10.9033-.2376-5.6523-.005-11.3046-.007-16.9569-.007-5.5045,.003-11.0091-.003-16.5136,.0161l3.4326-2.494z"/>
<path d="m389.6575,510.8811c3.978,.009 8.1068-.1944 11.7471,1.6172 2.2224,1.5896 3.3971,3.6048 4.0261,6.212 .4746,2.7269 .4421,5.5077 .4483,8.266-.1569,2.7992-.0893,5.3966 .9371,8.0158 1.086,2.4692 1.4863,5.1153 1.7216,7.7785 .14,1.3773 .1343,2.7361 .0206,4.1117l-8.8809,4.3949c.2063-1.3204 .2096-2.604 .0766-3.9388-.2005-2.5721-.5394-5.135-1.5892-7.5205-1.0872-2.7374-1.3268-5.4058-1.103-8.3477-.0006-2.6889 .0403-5.3959-.3581-8.0623-.5047-2.327-1.4934-4.1188-3.5478-5.4485-3.6197-1.5515-7.6471-1.2737-11.508-1.2591l8.0095-5.8192z"/>
<path d="m248.237,560.0362c.8975-1.5507 2.1744-2.9561 2.838-4.6425 .2164-.5498 .3511-1.2125-.3246-1.14-2.4353,1.587-6.4038,3.4357 5.0426-2.7932 .3173-.1727-.5982,.4092-.8658,.652-.7439,.6748-.807,.913-1.3312,1.7632-.8695,2.3517-.1382,4.65 .51,6.9395l.2994,1.2278-7.4744,4.0337-.2849-1.1975c-.7041-2.4863-1.4482-4.9208-.8047-7.527 2.0719-4.3196 7.2879-7.8558 12.0262-7.8112 2.5795,1.9456-.7309,5.1483-1.8806,7.0405l-7.7501,3.4547z"/>
<path d="m379.8055,464.425 1.2071-1.5725 7.7567-3.3465-1.1517,1.5998-7.8121,3.3192z"/>
<path d="m390.2088,460.4387c-11.0773,6.8258-4.3241,2.3061-2.2031,.2784 1.4668-1.4022 2.749-2.9963 4.1224-4.4875l7.7985-3.2587c-1.4178,1.4787-2.6695,3.1102-4.1149,4.5603-3.5487,3.5601-7.6356,5.8607-12.1997,8.2446l6.5967-5.337z"/>
<path d="m296.6753,515.4195c-3.6811-2.4263-7.2497-5.0149-10.9317-7.4447-2.6095-1.7984-4.7909-3.6443-5.9571-6.6368-.7735-2.6633-.7488-5.4608-.7677-8.2094 .005-2.8592 .0315-5.7183 .045-8.5774-.0993-7.2366 3.4826-7.1421 10.2215-11.0846 2.5699-.7148 5.3361-1.0007 7.9773-.5887 2.8121,.3989 4.7383,1.9843 5.5357,4.6845 .3037,2.759-.0647,5.5422-.2279,8.3021-.1593,2.8622-.1918,5.729-.2134,8.5949-.0146,2.8591-.011,5.7183-.01,8.5774 .0009,1.9049 .0005,.9524 .001,2.8573l-7.5574,3.8511c-.0008-1.9048-.0004-.9524-.001-2.8572-.001-2.861-.005-5.7221 .007-8.5831 .0184-2.8784 .0456-5.7579 .194-8.6331 .1502-2.6815 .4696-5.3691 .3392-8.0551-.5781-2.4833-2.5621-3.5496-4.9977-3.8301-2.5737-.2155-5.2702-.0172-7.6626,1.0135 2.0685-1.2351 4.1138-2.5101 6.2056-3.7054 .3278-.1873-.6406,.4108-.9074,.6779-1.305,1.3066-1.3911,3.202-1.3451,4.9315-.0126,2.8565-.0372,5.713-.0477,8.5695 .009,2.6522-.0403,5.3505 .6331,7.9365 1.0491,2.833 3.2199,4.5057 5.6459,6.2084 3.6655,2.4314 7.1835,5.0839 10.9353,7.3765l-7.1143,4.6246z"/>
<path d="m317.6481,502.9214c.0538-4.9916 .0403-9.9836 .0272-14.9754 .008-3.3165-.3052-6.6599 .7184-9.8596 2.5751-4.3993 8.1461-6.3012 12.2641-8.5965 2.6896-.9563 5.3968-.9976 8.0982-.1243 2.377,1.9774 2.2534,4.9218 1.5536,7.6714-.8696,2.3827-2.8037,3.7066-4.6847,5.2177-2.6649,1.7204-4.0916,4.4676-5.4383,7.2346-1.2657,3.008-3.5423,5.0894-6.0162,7.0863-1.1074,.8543-2.0371,1.9024-3.0066,2.9027l-7.8399,3.2516c1.0046-.9918 1.8711-2.1014 2.9782-2.9857 2.3952-1.9946 4.912-3.7585 6.1852-6.7512 1.2781-2.7809 2.6-5.843 5.2572-7.5613 1.7736-1.5078 3.8107-2.5854 4.8944-4.7614 .7452-2.1628 1.2077-4.9625-.8886-6.509-2.6331-.658-5.2339-.4755-7.7429,.6109 12.2905-7.3037 4.2482-3.113 2.0918-.27-1.3252,3.0314-.8317,6.3943-.9172,9.6189-.0131,4.9825-.0268,9.9653 .0272,14.9476l-7.561,3.8525z"/>
<path d="m307.945,504.2562c1.3643-5.5363 1.8784-11.2287 2.2686-16.9023 .2857-4.0741 .3877-8.1292-.0647-12.1893l7.484-3.9184c.458,4.115 .3785,8.2196 .0822,12.3495-.3829,5.6987-.9145,11.403-2.1193,16.9956l-7.6508,3.665z"/>
</g>
</svg>